<svg xmlns="http://www.w3.org/2000/svg" xmlns:xlink="http://www.w3.org/1999/xlink" width="40" zoomAndPan="magnify" viewBox="0 0 30 37.92" height="40" preserveAspectRatio="xMidYMid meet" version="1.0"><defs><clipPath id="71b1217c02"><path d="M 3.113281 0.683594 L 26.886719 0.683594 L 26.886719 29.300781 L 3.113281 29.300781 Z M 3.113281 0.683594 " clip-rule="nonzero"/></clipPath><clipPath id="9507693df7"><path d="M 19.457031 1.550781 C 18.035156 0.976562 16.539062 0.683594 15 0.683594 C 13.460938 0.683594 11.964844 0.976562 10.542969 1.550781 C 9.078125 2.144531 7.757812 3.019531 6.632812 4.148438 C 4.429688 6.355469 3.199219 9.285156 3.167969 12.402344 C 3.136719 15.511719 4.304688 18.464844 6.460938 20.707031 L 6.453125 20.710938 L 15 29.257812 L 23.5 20.757812 L 23.492188 20.753906 C 25.667969 18.511719 26.855469 15.558594 26.832031 12.433594 C 26.8125 9.300781 25.582031 6.363281 23.367188 4.148438 C 22.234375 3.019531 20.921875 2.144531 19.457031 1.550781 Z M 19.457031 1.550781 " clip-rule="nonzero"/></clipPath><clipPath id="cdba8f0321"><path d="M 0.144531 0.683594 L 23.855469 0.683594 L 23.855469 29.300781 L 0.144531 29.300781 Z M 0.144531 0.683594 " clip-rule="nonzero"/></clipPath><clipPath id="19ed4c1b19"><path d="M 16.457031 1.550781 C 15.035156 0.976562 13.539062 0.683594 12 0.683594 C 10.460938 0.683594 8.964844 0.976562 7.542969 1.550781 C 6.078125 2.144531 4.757812 3.019531 3.632812 4.148438 C 1.429688 6.355469 0.199219 9.285156 0.167969 12.402344 C 0.136719 15.511719 1.304688 18.464844 3.460938 20.707031 L 3.453125 20.710938 L 12 29.257812 L 20.5 20.757812 L 20.492188 20.753906 C 22.667969 18.511719 23.855469 15.558594 23.832031 12.433594 C 23.8125 9.300781 22.582031 6.363281 20.367188 4.148438 C 19.234375 3.019531 17.921875 2.144531 16.457031 1.550781 Z M 16.457031 1.550781 " clip-rule="nonzero"/></clipPath><clipPath id="b04720ec52"><rect x="0" width="24" y="0" height="30"/></clipPath><clipPath id="977cbddb82"><path d="M 4.261719 1.777344 L 25.738281 1.777344 L 25.738281 23.203125 L 4.261719 23.203125 Z M 4.261719 1.777344 " clip-rule="nonzero"/></clipPath><clipPath id="b0d774d58f"><path d="M 14.996094 1.789062 C 9.089844 1.789062 4.300781 6.578125 4.300781 12.484375 C 4.300781 18.390625 9.089844 23.179688 14.996094 23.179688 C 20.902344 23.179688 25.691406 18.390625 25.691406 12.484375 C 25.691406 6.578125 20.902344 1.789062 14.996094 1.789062 Z M 14.996094 1.789062 " clip-rule="nonzero"/></clipPath><clipPath id="3d3b9c2e28"><path d="M 0.261719 0.777344 L 21.738281 0.777344 L 21.738281 22.203125 L 0.261719 22.203125 Z M 0.261719 0.777344 " clip-rule="nonzero"/></clipPath><clipPath id="be2d1bbfbd"><path d="M 10.996094 0.789062 C 5.089844 0.789062 0.300781 5.578125 0.300781 11.484375 C 0.300781 17.390625 5.089844 22.179688 10.996094 22.179688 C 16.902344 22.179688 21.691406 17.390625 21.691406 11.484375 C 21.691406 5.578125 16.902344 0.789062 10.996094 0.789062 Z M 10.996094 0.789062 " clip-rule="nonzero"/></clipPath><clipPath id="c8301efbb8"><rect x="0" width="22" y="0" height="23"/></clipPath><clipPath id="131a5e20a5"><path d="M 14 8 L 22 8 L 22 18.839844 L 14 18.839844 Z M 14 8 " clip-rule="nonzero"/></clipPath><clipPath id="7ecb743d9b"><path d="M 7.496094 5.367188 L 16 5.367188 L 16 18.839844 L 7.496094 18.839844 Z M 7.496094 5.367188 " clip-rule="nonzero"/></clipPath><clipPath id="fb82e2f944"><path d="M 18 12 L 23.960938 12 L 23.960938 18.839844 L 18 18.839844 Z M 18 12 " clip-rule="nonzero"/></clipPath></defs><g clip-path="url(#71b1217c02)"><g clip-path="url(#9507693df7)"><g transform="matrix(1, 0, 0, 1, 3, 0.000000000000005773)"><g clip-path="url(#b04720ec52)"><g clip-path="url(#cdba8f0321)"><g clip-path="url(#19ed4c1b19)"><path fill="#1800ad" d="M 0.167969 0.683594 L 23.832031 0.683594 L 23.832031 29.25 L 0.167969 29.25 Z M 0.167969 0.683594 " fill-opacity="1" fill-rule="nonzero"/></g></g></g></g></g></g><g clip-path="url(#977cbddb82)"><g clip-path="url(#b0d774d58f)"><g transform="matrix(1, 0, 0, 1, 4, 1)"><g clip-path="url(#c8301efbb8)"><g clip-path="url(#3d3b9c2e28)"><g clip-path="url(#be2d1bbfbd)"><rect x="-10.6" width="43.2" fill="#ffffff" height="54.6048" y="-9.3424" fill-opacity="1"/></g></g></g></g></g></g><g clip-path="url(#131a5e20a5)"><path fill="#faab11" d="M 16.605469 11.4375 L 14.964844 11.4375 L 14.964844 9.800781 L 16.605469 9.800781 Z M 16.605469 14.082031 L 14.964844 14.082031 L 14.964844 12.441406 L 16.605469 12.441406 Z M 16.605469 16.722656 L 14.964844 16.722656 L 14.964844 15.082031 L 16.605469 15.082031 Z M 18.429688 9.800781 L 20.066406 9.800781 L 20.066406 11.4375 L 18.429688 11.4375 Z M 17.652344 15.550781 C 17.652344 13.628906 19.214844 12.070312 21.132812 12.070312 L 21.160156 12.070312 L 21.160156 9.066406 C 21.160156 8.917969 21.042969 8.796875 20.894531 8.796875 L 14.324219 8.796875 C 14.175781 8.796875 14.054688 8.917969 14.054688 9.066406 L 14.054688 19 L 20.683594 19 C 18.976562 18.78125 17.652344 17.316406 17.652344 15.550781 " fill-opacity="1" fill-rule="nonzero"/></g><g clip-path="url(#7ecb743d9b)"><path fill="#faab11" d="M 11.777344 10.074219 L 10.5 10.074219 L 10.5 8.796875 L 11.777344 8.796875 Z M 11.777344 11.917969 L 10.5 11.917969 L 10.5 10.640625 L 11.777344 10.640625 Z M 11.777344 13.761719 L 10.5 13.761719 L 10.5 12.488281 L 11.777344 12.488281 Z M 11.777344 15.609375 L 10.5 15.609375 L 10.5 14.332031 L 11.777344 14.332031 Z M 11.777344 17.453125 L 10.5 17.453125 L 10.5 16.175781 L 11.777344 16.175781 Z M 9.863281 10.074219 L 8.589844 10.074219 L 8.589844 8.796875 L 9.863281 8.796875 Z M 9.863281 11.917969 L 8.589844 11.917969 L 8.589844 10.640625 L 9.863281 10.640625 Z M 9.863281 13.761719 L 8.589844 13.761719 L 8.589844 12.488281 L 9.863281 12.488281 Z M 9.863281 15.609375 L 8.589844 15.609375 L 8.589844 14.332031 L 9.863281 14.332031 Z M 9.863281 17.453125 L 8.589844 17.453125 L 8.589844 16.175781 L 9.863281 16.175781 Z M 15.332031 7.976562 L 15.332031 5.671875 C 15.332031 5.5 15.171875 5.371094 15 5.410156 L 7.703125 7.109375 C 7.582031 7.136719 7.496094 7.246094 7.496094 7.371094 L 7.496094 19 L 13.234375 19 L 13.234375 9.066406 C 13.234375 8.464844 13.722656 7.976562 14.324219 7.976562 L 15.332031 7.976562 " fill-opacity="1" fill-rule="nonzero"/></g><g clip-path="url(#fb82e2f944)"><path fill="#faab11" d="M 20.816406 15.109375 C 20.863281 15.148438 20.960938 15.195312 21.109375 15.246094 C 21.152344 15.261719 21.195312 15.28125 21.25 15.296875 C 21.449219 15.363281 21.605469 15.429688 21.722656 15.492188 C 21.832031 15.558594 21.925781 15.648438 21.996094 15.761719 C 22.066406 15.878906 22.105469 16.015625 22.105469 16.167969 C 22.105469 16.371094 22.039062 16.554688 21.914062 16.714844 C 21.859375 16.789062 21.785156 16.847656 21.703125 16.894531 C 21.625 16.9375 21.535156 16.972656 21.429688 16.992188 C 21.421875 16.996094 21.414062 16.996094 21.402344 17 L 21.402344 17.375 L 20.867188 17.375 L 20.867188 17 C 20.855469 17 20.84375 16.996094 20.832031 16.996094 C 20.488281 16.921875 20.261719 16.710938 20.15625 16.355469 L 20.660156 16.160156 C 20.667969 16.183594 20.675781 16.203125 20.683594 16.222656 C 20.761719 16.398438 20.925781 16.515625 21.109375 16.53125 C 21.121094 16.535156 21.132812 16.535156 21.144531 16.535156 C 21.148438 16.535156 21.175781 16.53125 21.210938 16.53125 C 21.246094 16.527344 21.289062 16.519531 21.3125 16.515625 C 21.371094 16.5 21.417969 16.472656 21.457031 16.4375 C 21.519531 16.371094 21.550781 16.292969 21.550781 16.203125 C 21.550781 16.109375 21.519531 16.035156 21.457031 15.988281 C 21.398438 15.945312 21.28125 15.894531 21.109375 15.832031 C 21.082031 15.824219 21.050781 15.8125 21.023438 15.804688 C 20.820312 15.738281 20.664062 15.671875 20.546875 15.605469 C 20.433594 15.542969 20.34375 15.453125 20.273438 15.335938 C 20.203125 15.21875 20.167969 15.085938 20.167969 14.929688 C 20.167969 14.726562 20.230469 14.546875 20.355469 14.382812 C 20.414062 14.3125 20.484375 14.25 20.566406 14.203125 C 20.644531 14.160156 20.734375 14.128906 20.839844 14.105469 C 20.847656 14.101562 20.855469 14.101562 20.867188 14.097656 L 20.867188 13.722656 L 21.402344 13.722656 L 21.402344 14.097656 C 21.414062 14.101562 21.425781 14.101562 21.4375 14.105469 C 21.78125 14.179688 22.007812 14.390625 22.113281 14.742188 L 21.609375 14.9375 C 21.601562 14.914062 21.589844 14.886719 21.578125 14.863281 C 21.496094 14.679688 21.316406 14.566406 21.125 14.566406 C 21.125 14.566406 21.117188 14.566406 21.109375 14.566406 C 21.097656 14.566406 21.078125 14.570312 21.058594 14.570312 C 21.023438 14.574219 20.984375 14.578125 20.960938 14.585938 C 20.898438 14.601562 20.851562 14.625 20.816406 14.664062 C 20.75 14.726562 20.71875 14.804688 20.71875 14.894531 C 20.71875 14.992188 20.75 15.0625 20.816406 15.109375 Z M 21.136719 12.6875 L 21.109375 12.6875 C 19.539062 12.703125 18.273438 13.980469 18.273438 15.550781 C 18.273438 17.121094 19.539062 18.394531 21.109375 18.410156 L 21.136719 18.410156 C 22.296875 18.410156 23.296875 17.71875 23.746094 16.722656 C 23.78125 16.644531 23.8125 16.5625 23.839844 16.480469 C 23.941406 16.1875 23.996094 15.875 23.996094 15.550781 C 23.996094 13.96875 22.714844 12.6875 21.136719 12.6875 " fill-opacity="1" fill-rule="nonzero"/></g></svg>