<svg xmlns="http://www.w3.org/2000/svg" xmlns:xlink="http://www.w3.org/1999/xlink" width="40" zoomAndPan="magnify" viewBox="0 0 30 37.92" height="40" preserveAspectRatio="xMidYMid meet" version="1.0"><defs><clipPath id="60f2853829"><path d="M 3.113281 0.683594 L 26.886719 0.683594 L 26.886719 29.300781 L 3.113281 29.300781 Z M 3.113281 0.683594 " clip-rule="nonzero"/></clipPath><clipPath id="5f861bdfdd"><path d="M 19.457031 1.550781 C 18.035156 0.976562 16.539062 0.683594 15 0.683594 C 13.460938 0.683594 11.964844 0.976562 10.542969 1.550781 C 9.078125 2.144531 7.757812 3.019531 6.632812 4.148438 C 4.429688 6.355469 3.199219 9.285156 3.167969 12.402344 C 3.136719 15.511719 4.304688 18.464844 6.460938 20.707031 L 6.453125 20.710938 L 15 29.257812 L 23.5 20.757812 L 23.492188 20.753906 C 25.667969 18.511719 26.855469 15.558594 26.832031 12.433594 C 26.8125 9.300781 25.582031 6.363281 23.367188 4.148438 C 22.234375 3.019531 20.921875 2.144531 19.457031 1.550781 Z M 19.457031 1.550781 " clip-rule="nonzero"/></clipPath><clipPath id="217597feb0"><path d="M 0.144531 0.683594 L 23.855469 0.683594 L 23.855469 29.300781 L 0.144531 29.300781 Z M 0.144531 0.683594 " clip-rule="nonzero"/></clipPath><clipPath id="cc2cbbc903"><path d="M 16.457031 1.550781 C 15.035156 0.976562 13.539062 0.683594 12 0.683594 C 10.460938 0.683594 8.964844 0.976562 7.542969 1.550781 C 6.078125 2.144531 4.757812 3.019531 3.632812 4.148438 C 1.429688 6.355469 0.199219 9.285156 0.167969 12.402344 C 0.136719 15.511719 1.304688 18.464844 3.460938 20.707031 L 3.453125 20.710938 L 12 29.257812 L 20.5 20.757812 L 20.492188 20.753906 C 22.667969 18.511719 23.855469 15.558594 23.832031 12.433594 C 23.8125 9.300781 22.582031 6.363281 20.367188 4.148438 C 19.234375 3.019531 17.921875 2.144531 16.457031 1.550781 Z M 16.457031 1.550781 " clip-rule="nonzero"/></clipPath><clipPath id="cf8f6442f0"><rect x="0" width="24" y="0" height="30"/></clipPath><clipPath id="9be207f750"><path d="M 4.261719 1.777344 L 25.738281 1.777344 L 25.738281 23.203125 L 4.261719 23.203125 Z M 4.261719 1.777344 " clip-rule="nonzero"/></clipPath><clipPath id="319e1bf179"><path d="M 14.996094 1.789062 C 9.089844 1.789062 4.300781 6.578125 4.300781 12.484375 C 4.300781 18.390625 9.089844 23.179688 14.996094 23.179688 C 20.902344 23.179688 25.691406 18.390625 25.691406 12.484375 C 25.691406 6.578125 20.902344 1.789062 14.996094 1.789062 Z M 14.996094 1.789062 " clip-rule="nonzero"/></clipPath><clipPath id="c6a4381842"><path d="M 0.261719 0.777344 L 21.738281 0.777344 L 21.738281 22.203125 L 0.261719 22.203125 Z M 0.261719 0.777344 " clip-rule="nonzero"/></clipPath><clipPath id="b32c41fe4f"><path d="M 10.996094 0.789062 C 5.089844 0.789062 0.300781 5.578125 0.300781 11.484375 C 0.300781 17.390625 5.089844 22.179688 10.996094 22.179688 C 16.902344 22.179688 21.691406 17.390625 21.691406 11.484375 C 21.691406 5.578125 16.902344 0.789062 10.996094 0.789062 Z M 10.996094 0.789062 " clip-rule="nonzero"/></clipPath><clipPath id="9711976f42"><rect x="0" width="22" y="0" height="23"/></clipPath><clipPath id="e1c7d853e2"><path d="M 7.558594 5.0625 L 22.527344 5.0625 L 22.527344 19.285156 L 7.558594 19.285156 Z M 7.558594 5.0625 " clip-rule="nonzero"/></clipPath></defs><g clip-path="url(#60f2853829)"><g clip-path="url(#5f861bdfdd)"><g transform="matrix(1, 0, 0, 1, 3, 0.000000000000005773)"><g clip-path="url(#cf8f6442f0)"><g clip-path="url(#217597feb0)"><g clip-path="url(#cc2cbbc903)"><path fill="#1800ad" d="M 0.167969 0.683594 L 23.832031 0.683594 L 23.832031 29.25 L 0.167969 29.25 Z M 0.167969 0.683594 " fill-opacity="1" fill-rule="nonzero"/></g></g></g></g></g></g><g clip-path="url(#9be207f750)"><g clip-path="url(#319e1bf179)"><g transform="matrix(1, 0, 0, 1, 4, 1)"><g clip-path="url(#9711976f42)"><g clip-path="url(#c6a4381842)"><g clip-path="url(#b32c41fe4f)"><rect x="-10.6" width="43.2" fill="#ffffff" height="54.6048" y="-9.3424" fill-opacity="1"/></g></g></g></g></g></g><g clip-path="url(#e1c7d853e2)"><path fill="#faab11" d="M 8.964844 8.527344 L 8.964844 7.746094 C 8.964844 7.675781 9.015625 7.617188 9.082031 7.601562 L 9.503906 7.519531 L 9.808594 6.785156 L 9.570312 6.429688 C 9.53125 6.371094 9.539062 6.292969 9.585938 6.246094 L 10.140625 5.691406 C 10.191406 5.640625 10.265625 5.636719 10.324219 5.675781 L 10.683594 5.914062 L 11.414062 5.609375 L 11.5 5.1875 C 11.511719 5.117188 11.570312 5.070312 11.640625 5.070312 L 12.421875 5.070312 C 12.492188 5.070312 12.550781 5.117188 12.566406 5.1875 L 12.648438 5.609375 L 13.382812 5.914062 L 13.738281 5.675781 C 13.796875 5.636719 13.875 5.640625 13.921875 5.691406 L 14.476562 6.246094 C 14.527344 6.292969 14.535156 6.371094 14.496094 6.429688 L 14.253906 6.785156 L 14.558594 7.519531 L 14.980469 7.601562 C 15.050781 7.617188 15.097656 7.675781 15.097656 7.746094 L 15.097656 8.527344 C 15.097656 8.597656 15.050781 8.65625 14.980469 8.671875 L 14.558594 8.753906 L 14.347656 9.265625 L 13.125 9.265625 C 13.421875 8.980469 13.605469 8.582031 13.605469 8.136719 C 13.605469 7.269531 12.902344 6.5625 12.03125 6.5625 C 11.164062 6.5625 10.460938 7.269531 10.460938 8.136719 C 10.460938 9.003906 11.164062 9.707031 12.03125 9.707031 C 12.28125 9.707031 12.515625 9.652344 12.722656 9.550781 L 12.722656 10.269531 L 12.421875 10.269531 C 12.304688 10.269531 12.207031 10.363281 12.207031 10.480469 L 12.207031 11.203125 L 11.640625 11.203125 C 11.570312 11.203125 11.511719 11.152344 11.5 11.085938 L 11.414062 10.664062 L 10.683594 10.359375 L 10.324219 10.597656 C 10.265625 10.636719 10.191406 10.628906 10.140625 10.582031 L 9.585938 10.027344 C 9.539062 9.980469 9.53125 9.902344 9.570312 9.84375 L 9.808594 9.488281 L 9.503906 8.753906 L 9.082031 8.671875 C 9.015625 8.65625 8.964844 8.597656 8.964844 8.527344 Z M 18.882812 10.554688 L 18.597656 14.929688 L 20.847656 14.929688 L 20.5625 10.554688 Z M 18.730469 10.128906 L 20.714844 10.128906 C 20.800781 10.128906 20.871094 10.058594 20.871094 9.972656 L 20.871094 9.449219 C 20.871094 9.363281 20.800781 9.292969 20.714844 9.292969 L 18.730469 9.292969 C 18.644531 9.292969 18.574219 9.363281 18.574219 9.449219 L 18.574219 9.972656 C 18.574219 10.058594 18.644531 10.128906 18.730469 10.128906 Z M 13.148438 10.269531 L 16.644531 10.269531 L 16.644531 9.691406 L 13.148438 9.691406 Z M 9.730469 13.898438 L 8.277344 13.898438 L 8.277344 18.363281 L 9.730469 18.363281 Z M 16.101562 18.363281 L 16.101562 15.882812 C 16.101562 15.523438 15.808594 15.230469 15.449219 15.230469 L 14.34375 15.230469 C 13.984375 15.230469 13.691406 15.523438 13.691406 15.882812 L 13.691406 18.363281 L 12.632812 18.363281 L 12.632812 10.695312 L 17.160156 10.695312 C 17.160156 10.695312 17.160156 18.363281 17.160156 18.363281 Z M 16.074219 11.765625 L 13.71875 11.765625 L 13.71875 12.75 L 16.074219 12.75 Z M 14.34375 15.65625 C 14.21875 15.65625 14.117188 15.757812 14.117188 15.882812 L 14.117188 18.363281 L 15.675781 18.363281 L 15.675781 15.882812 C 15.675781 15.757812 15.574219 15.65625 15.449219 15.65625 Z M 21.664062 18.363281 L 17.585938 18.363281 L 17.585938 15.355469 L 21.664062 15.355469 Z M 20.167969 16.332031 L 19.082031 16.332031 L 19.082031 17.605469 L 20.167969 17.605469 Z M 10.15625 12.546875 L 12.207031 11.679688 L 12.207031 18.363281 L 10.15625 18.363281 Z M 10.847656 15.96875 L 11.519531 15.96875 L 11.519531 14.203125 L 10.847656 14.203125 Z M 7.558594 18.789062 L 7.558594 19.394531 L 22.433594 19.394531 L 22.433594 18.789062 Z M 7.558594 18.789062 " fill-opacity="1" fill-rule="evenodd"/></g></svg>