<svg xmlns="http://www.w3.org/2000/svg" xmlns:xlink="http://www.w3.org/1999/xlink" width="40" zoomAndPan="magnify" viewBox="0 0 30 37.92" height="40" preserveAspectRatio="xMidYMid meet" version="1.0"><defs><clipPath id="8ccb4b1cf8"><path d="M 3.257812 0.683594 L 27 0.683594 L 27 29.300781 L 3.257812 29.300781 Z M 3.257812 0.683594 " clip-rule="nonzero"/></clipPath><clipPath id="a14f423d05"><path d="M 19.597656 1.550781 C 18.179688 0.976562 16.679688 0.683594 15.140625 0.683594 C 13.601562 0.683594 12.105469 0.976562 10.6875 1.550781 C 9.21875 2.144531 7.902344 3.019531 6.773438 4.148438 C 4.570312 6.355469 3.339844 9.285156 3.308594 12.402344 C 3.277344 15.511719 4.445312 18.464844 6.601562 20.707031 L 6.597656 20.710938 L 15.140625 29.257812 L 23.640625 20.757812 L 23.636719 20.753906 C 25.8125 18.511719 26.996094 15.558594 26.976562 12.433594 C 26.953125 9.300781 25.722656 6.363281 23.511719 4.148438 C 22.378906 3.019531 21.0625 2.144531 19.597656 1.550781 Z M 19.597656 1.550781 " clip-rule="nonzero"/></clipPath><clipPath id="4f5ad822cf"><path d="M 0.257812 0.683594 L 24 0.683594 L 24 29.300781 L 0.257812 29.300781 Z M 0.257812 0.683594 " clip-rule="nonzero"/></clipPath><clipPath id="eaea46a66b"><path d="M 16.597656 1.550781 C 15.179688 0.976562 13.679688 0.683594 12.140625 0.683594 C 10.601562 0.683594 9.105469 0.976562 7.6875 1.550781 C 6.21875 2.144531 4.902344 3.019531 3.773438 4.148438 C 1.570312 6.355469 0.339844 9.285156 0.308594 12.402344 C 0.277344 15.511719 1.445312 18.464844 3.601562 20.707031 L 3.597656 20.710938 L 12.140625 29.257812 L 20.640625 20.757812 L 20.636719 20.753906 C 22.8125 18.511719 23.996094 15.558594 23.976562 12.433594 C 23.953125 9.300781 22.722656 6.363281 20.511719 4.148438 C 19.378906 3.019531 18.0625 2.144531 16.597656 1.550781 Z M 16.597656 1.550781 " clip-rule="nonzero"/></clipPath><clipPath id="d11c1a3696"><rect x="0" width="24" y="0" height="30"/></clipPath><clipPath id="02c4e1a604"><path d="M 4.402344 1.777344 L 25.878906 1.777344 L 25.878906 23.203125 L 4.402344 23.203125 Z M 4.402344 1.777344 " clip-rule="nonzero"/></clipPath><clipPath id="b02f8f11ba"><path d="M 15.136719 1.789062 C 9.230469 1.789062 4.441406 6.578125 4.441406 12.484375 C 4.441406 18.390625 9.230469 23.179688 15.136719 23.179688 C 21.042969 23.179688 25.832031 18.390625 25.832031 12.484375 C 25.832031 6.578125 21.042969 1.789062 15.136719 1.789062 Z M 15.136719 1.789062 " clip-rule="nonzero"/></clipPath><clipPath id="e3b7ab0888"><path d="M 0.402344 0.777344 L 21.878906 0.777344 L 21.878906 22.203125 L 0.402344 22.203125 Z M 0.402344 0.777344 " clip-rule="nonzero"/></clipPath><clipPath id="d04b12a349"><path d="M 11.136719 0.789062 C 5.230469 0.789062 0.441406 5.578125 0.441406 11.484375 C 0.441406 17.390625 5.230469 22.179688 11.136719 22.179688 C 17.042969 22.179688 21.832031 17.390625 21.832031 11.484375 C 21.832031 5.578125 17.042969 0.789062 11.136719 0.789062 Z M 11.136719 0.789062 " clip-rule="nonzero"/></clipPath><clipPath id="1b9560b729"><rect x="0" width="22" y="0" height="23"/></clipPath><clipPath id="2fc7b79ac6"><path d="M 7 9 L 23 9 L 23 18.964844 L 7 18.964844 Z M 7 9 " clip-rule="nonzero"/></clipPath><clipPath id="f733a04604"><path d="M 6.414062 6 L 23.625 6 L 23.625 10 L 6.414062 10 Z M 6.414062 6 " clip-rule="nonzero"/></clipPath><clipPath id="a94f732ea6"><path d="M 10 5.492188 L 21 5.492188 L 21 9 L 10 9 Z M 10 5.492188 " clip-rule="nonzero"/></clipPath><clipPath id="864c9aa347"><path d="M 10 5.492188 L 11 5.492188 L 11 7 L 10 7 Z M 10 5.492188 " clip-rule="nonzero"/></clipPath><clipPath id="3d64c44d1a"><path d="M 19 5.492188 L 21 5.492188 L 21 7 L 19 7 Z M 19 5.492188 " clip-rule="nonzero"/></clipPath></defs><g clip-path="url(#8ccb4b1cf8)"><g clip-path="url(#a14f423d05)"><g transform="matrix(1, 0, 0, 1, 3, 0.000000000000005773)"><g clip-path="url(#d11c1a3696)"><g clip-path="url(#4f5ad822cf)"><g clip-path="url(#eaea46a66b)"><path fill="#1800ad" d="M 0.308594 0.683594 L 23.976562 0.683594 L 23.976562 29.25 L 0.308594 29.25 Z M 0.308594 0.683594 " fill-opacity="1" fill-rule="nonzero"/></g></g></g></g></g></g><g clip-path="url(#02c4e1a604)"><g clip-path="url(#b02f8f11ba)"><g transform="matrix(1, 0, 0, 1, 4, 1)"><g clip-path="url(#1b9560b729)"><g clip-path="url(#e3b7ab0888)"><g clip-path="url(#d04b12a349)"><rect x="-10.6" width="43.2" fill="#ffffff" height="54.6048" y="-9.3424" fill-opacity="1"/></g></g></g></g></g></g><g clip-path="url(#2fc7b79ac6)"><path fill="#faab11" d="M 7.421875 9.707031 C 7.378906 9.800781 7.351562 9.902344 7.351562 10.007812 L 7.351562 18.207031 C 7.351562 18.382812 7.417969 18.550781 7.535156 18.675781 C 7.65625 18.796875 7.8125 18.867188 7.980469 18.867188 L 22.300781 18.867188 C 22.46875 18.867188 22.625 18.800781 22.742188 18.675781 C 22.863281 18.550781 22.925781 18.382812 22.925781 18.207031 L 22.925781 10.007812 C 22.925781 9.902344 22.902344 9.800781 22.859375 9.707031 Z M 18.253906 11.28125 L 19.882812 11.28125 L 19.882812 12.777344 L 18.253906 12.777344 Z M 21.828125 17.125 L 16.9375 17.125 L 16.9375 15.636719 L 21.828125 15.636719 Z M 16.304688 11.28125 L 17.933594 11.28125 L 17.933594 12.777344 L 16.304688 12.777344 Z M 14.355469 11.28125 L 15.984375 11.28125 L 15.984375 12.777344 L 14.355469 12.777344 Z M 12.40625 11.28125 L 14.035156 11.28125 L 14.035156 12.777344 L 12.40625 12.777344 Z M 13.214844 17.125 L 8.328125 17.125 L 8.328125 15.636719 L 13.214844 15.636719 Z M 10.457031 11.28125 L 12.085938 11.28125 L 12.085938 12.777344 L 10.457031 12.777344 Z M 8.507812 11.28125 L 10.136719 11.28125 L 10.136719 12.777344 L 8.507812 12.777344 Z M 16.675781 18.753906 L 13.613281 18.753906 L 13.613281 15.515625 L 15.101562 15.515625 L 15.101562 15.523438 L 15.105469 18.75 L 15.179688 18.75 L 15.171875 15.523438 L 15.171875 15.519531 L 16.675781 15.519531 Z M 21.832031 12.777344 L 20.203125 12.777344 L 20.203125 11.28125 L 21.832031 11.28125 Z M 21.832031 12.777344 " fill-opacity="1" fill-rule="nonzero"/></g><g clip-path="url(#f733a04604)"><path fill="#faab11" d="M 7.417969 9.703125 L 23.871094 9.703125 L 22.328125 6.769531 L 20.382812 6.769531 L 20.382812 7.429688 C 20.382812 7.765625 20.125 8.039062 19.808594 8.039062 L 10.730469 8.039062 C 10.410156 8.039062 10.152344 7.765625 10.152344 7.429688 L 10.152344 6.769531 L 7.835938 6.769531 L 6.414062 9.703125 Z M 7.417969 9.703125 " fill-opacity="1" fill-rule="nonzero"/></g><g clip-path="url(#a94f732ea6)"><path fill="#faab11" d="M 10.324219 5.679688 C 10.214844 5.792969 10.15625 5.941406 10.15625 6.101562 L 10.15625 7.429688 C 10.15625 7.589844 10.214844 7.742188 10.324219 7.855469 C 10.433594 7.96875 10.574219 8.03125 10.726562 8.03125 L 19.808594 8.03125 C 19.960938 8.03125 20.101562 7.96875 20.210938 7.855469 C 20.316406 7.742188 20.378906 7.589844 20.378906 7.429688 L 20.378906 6.101562 C 20.378906 5.941406 20.316406 5.792969 20.210938 5.679688 C 20.101562 5.566406 19.960938 5.5 19.808594 5.5 L 10.730469 5.5 C 10.574219 5.5 10.433594 5.566406 10.324219 5.679688 Z M 17.46875 6.5625 C 17.589844 6.46875 17.753906 6.421875 17.960938 6.421875 C 18.160156 6.421875 18.320312 6.464844 18.441406 6.554688 C 18.519531 6.613281 18.574219 6.679688 18.601562 6.761719 C 18.601562 6.765625 18.601562 6.765625 18.601562 6.769531 C 18.617188 6.8125 18.625 6.863281 18.625 6.914062 C 18.625 6.925781 18.625 6.945312 18.625 6.964844 L 17.792969 6.964844 C 17.796875 7.023438 17.808594 7.066406 17.835938 7.09375 C 17.859375 7.121094 17.910156 7.132812 17.984375 7.132812 C 18.089844 7.132812 18.148438 7.097656 18.167969 7.023438 L 18.621094 7.046875 C 18.59375 7.132812 18.527344 7.210938 18.414062 7.273438 C 18.304688 7.335938 18.15625 7.367188 17.96875 7.367188 C 17.761719 7.367188 17.59375 7.324219 17.46875 7.234375 C 17.34375 7.144531 17.285156 7.035156 17.285156 6.90625 C 17.285156 6.855469 17.289062 6.808594 17.308594 6.765625 C 17.308594 6.765625 17.308594 6.761719 17.308594 6.761719 C 17.339844 6.6875 17.390625 6.621094 17.46875 6.5625 Z M 16.15625 6.558594 C 16.273438 6.464844 16.425781 6.421875 16.617188 6.421875 C 16.78125 6.421875 16.917969 6.457031 17.023438 6.523438 C 17.121094 6.589844 17.179688 6.667969 17.199219 6.761719 C 17.199219 6.765625 17.199219 6.765625 17.199219 6.769531 C 17.199219 6.773438 17.203125 6.777344 17.203125 6.78125 L 16.777344 6.808594 C 16.773438 6.792969 16.769531 6.78125 16.769531 6.769531 C 16.769531 6.765625 16.765625 6.765625 16.765625 6.761719 C 16.742188 6.695312 16.695312 6.664062 16.628906 6.664062 C 16.578125 6.664062 16.539062 6.683594 16.515625 6.71875 C 16.507812 6.730469 16.5 6.746094 16.496094 6.761719 C 16.496094 6.765625 16.492188 6.765625 16.492188 6.769531 C 16.484375 6.800781 16.480469 6.84375 16.480469 6.898438 C 16.480469 6.972656 16.492188 7.027344 16.515625 7.0625 C 16.539062 7.097656 16.582031 7.117188 16.640625 7.117188 C 16.726562 7.117188 16.777344 7.074219 16.792969 6.984375 L 17.207031 7.007812 C 17.1875 7.113281 17.128906 7.203125 17.027344 7.269531 C 16.921875 7.335938 16.789062 7.367188 16.621094 7.367188 C 16.429688 7.367188 16.277344 7.324219 16.160156 7.238281 C 16.039062 7.148438 15.980469 7.039062 15.980469 6.902344 C 15.980469 6.855469 15.988281 6.808594 16 6.769531 C 16 6.765625 16.003906 6.765625 16.003906 6.761719 C 16.027344 6.6875 16.082031 6.617188 16.15625 6.558594 Z M 15.3125 6.09375 L 15.789062 6.09375 L 15.789062 6.375 L 15.3125 6.375 Z M 15.3125 6.441406 L 15.789062 6.441406 L 15.789062 7.351562 L 15.3125 7.351562 Z M 14.410156 6.441406 L 14.558594 6.441406 C 14.558594 6.347656 14.570312 6.277344 14.59375 6.230469 C 14.613281 6.179688 14.664062 6.144531 14.738281 6.113281 C 14.8125 6.085938 14.910156 6.070312 15.035156 6.070312 C 15.082031 6.070312 15.132812 6.070312 15.183594 6.074219 L 15.183594 6.308594 L 15.164062 6.308594 C 15.125 6.308594 15.09375 6.3125 15.070312 6.324219 C 15.046875 6.335938 15.03125 6.347656 15.023438 6.359375 C 15.019531 6.375 15.015625 6.402344 15.015625 6.441406 L 15.183594 6.441406 L 15.183594 6.671875 L 15.015625 6.671875 L 15.015625 7.351562 L 14.558594 7.351562 L 14.558594 6.671875 L 14.410156 6.671875 Z M 13.394531 6.441406 L 13.582031 6.441406 C 13.582031 6.367188 13.585938 6.3125 13.59375 6.277344 C 13.601562 6.238281 13.625 6.203125 13.660156 6.171875 C 13.695312 6.136719 13.746094 6.113281 13.804688 6.09375 C 13.863281 6.078125 13.945312 6.070312 14.046875 6.070312 C 14.15625 6.070312 14.261719 6.074219 14.359375 6.089844 L 14.359375 6.320312 C 14.28125 6.3125 14.226562 6.3125 14.1875 6.3125 C 14.148438 6.3125 14.117188 6.316406 14.085938 6.328125 C 14.050781 6.339844 14.035156 6.367188 14.035156 6.410156 L 14.035156 6.441406 L 14.351562 6.441406 L 14.351562 6.675781 L 14.039062 6.675781 L 14.039062 7.351562 L 13.582031 7.351562 L 13.582031 6.671875 L 13.394531 6.671875 Z M 11.945312 6.289062 C 12.085938 6.171875 12.28125 6.113281 12.53125 6.113281 C 12.765625 6.113281 12.953125 6.167969 13.097656 6.28125 C 13.246094 6.390625 13.316406 6.542969 13.316406 6.730469 C 13.316406 6.742188 13.316406 6.753906 13.316406 6.765625 C 13.316406 6.769531 13.316406 6.769531 13.316406 6.773438 C 13.308594 6.945312 13.234375 7.089844 13.097656 7.195312 C 12.953125 7.3125 12.761719 7.371094 12.527344 7.371094 C 12.296875 7.371094 12.105469 7.3125 11.957031 7.199219 C 11.816406 7.09375 11.742188 6.949219 11.738281 6.769531 C 11.738281 6.769531 11.738281 6.765625 11.738281 6.765625 C 11.738281 6.757812 11.738281 6.75 11.738281 6.742188 C 11.734375 6.558594 11.804688 6.410156 11.945312 6.289062 Z M 11.945312 6.289062 " fill-opacity="1" fill-rule="nonzero"/></g><g clip-path="url(#864c9aa347)"><path fill="#faab11" d="M 10.730469 5.496094 L 10.574219 5.496094 C 10.34375 5.496094 10.152344 5.683594 10.152344 5.917969 L 10.152344 6.105469 C 10.152344 5.769531 10.410156 5.496094 10.730469 5.496094 Z M 10.730469 5.496094 " fill-opacity="1" fill-rule="nonzero"/></g><g clip-path="url(#3d64c44d1a)"><path fill="#faab11" d="M 20.382812 6.101562 L 20.382812 5.917969 C 20.382812 5.683594 20.195312 5.496094 19.960938 5.496094 L 19.808594 5.496094 C 20.125 5.496094 20.382812 5.769531 20.382812 6.101562 Z M 20.382812 6.101562 " fill-opacity="1" fill-rule="nonzero"/></g><path fill="#faab11" d="M 18.136719 6.769531 C 18.136719 6.769531 18.136719 6.765625 18.136719 6.765625 C 18.132812 6.71875 18.113281 6.683594 18.085938 6.664062 C 18.050781 6.644531 18.011719 6.632812 17.960938 6.632812 C 17.855469 6.632812 17.800781 6.679688 17.792969 6.765625 C 17.792969 6.765625 17.792969 6.769531 17.792969 6.769531 C 17.792969 6.777344 17.792969 6.78125 17.792969 6.789062 L 18.136719 6.789062 C 18.136719 6.78125 18.136719 6.777344 18.136719 6.769531 Z M 18.136719 6.769531 " fill-opacity="1" fill-rule="nonzero"/><path fill="#faab11" d="M 12.285156 6.769531 C 12.289062 6.984375 12.371094 7.09375 12.523438 7.09375 C 12.609375 7.09375 12.671875 7.0625 12.710938 7.007812 C 12.742188 6.960938 12.761719 6.882812 12.765625 6.769531 C 12.765625 6.765625 12.765625 6.765625 12.765625 6.761719 C 12.765625 6.746094 12.769531 6.726562 12.769531 6.707031 C 12.769531 6.496094 12.691406 6.386719 12.535156 6.386719 C 12.371094 6.386719 12.285156 6.507812 12.285156 6.75 C 12.285156 6.753906 12.285156 6.761719 12.285156 6.761719 C 12.285156 6.765625 12.285156 6.769531 12.285156 6.769531 Z M 12.285156 6.769531 " fill-opacity="1" fill-rule="nonzero"/></svg>