<svg xmlns="http://www.w3.org/2000/svg" xmlns:xlink="http://www.w3.org/1999/xlink" width="40" zoomAndPan="magnify" viewBox="0 0 30 37.92" height="40" preserveAspectRatio="xMidYMid meet" version="1.0"><defs><clipPath id="2ec45fe559"><path d="M 3.113281 0.683594 L 26.886719 0.683594 L 26.886719 29.300781 L 3.113281 29.300781 Z M 3.113281 0.683594 " clip-rule="nonzero"/></clipPath><clipPath id="acaf4cbef0"><path d="M 19.457031 1.550781 C 18.035156 0.976562 16.539062 0.683594 15 0.683594 C 13.460938 0.683594 11.964844 0.976562 10.542969 1.550781 C 9.078125 2.144531 7.757812 3.019531 6.632812 4.148438 C 4.429688 6.355469 3.199219 9.285156 3.167969 12.402344 C 3.136719 15.511719 4.304688 18.464844 6.460938 20.707031 L 6.453125 20.710938 L 15 29.257812 L 23.5 20.757812 L 23.492188 20.753906 C 25.667969 18.511719 26.855469 15.558594 26.832031 12.433594 C 26.8125 9.300781 25.582031 6.363281 23.367188 4.148438 C 22.234375 3.019531 20.921875 2.144531 19.457031 1.550781 Z M 19.457031 1.550781 " clip-rule="nonzero"/></clipPath><clipPath id="b8ec87a222"><path d="M 0.144531 0.683594 L 23.855469 0.683594 L 23.855469 29.300781 L 0.144531 29.300781 Z M 0.144531 0.683594 " clip-rule="nonzero"/></clipPath><clipPath id="1e25f03679"><path d="M 16.457031 1.550781 C 15.035156 0.976562 13.539062 0.683594 12 0.683594 C 10.460938 0.683594 8.964844 0.976562 7.542969 1.550781 C 6.078125 2.144531 4.757812 3.019531 3.632812 4.148438 C 1.429688 6.355469 0.199219 9.285156 0.167969 12.402344 C 0.136719 15.511719 1.304688 18.464844 3.460938 20.707031 L 3.453125 20.710938 L 12 29.257812 L 20.5 20.757812 L 20.492188 20.753906 C 22.667969 18.511719 23.855469 15.558594 23.832031 12.433594 C 23.8125 9.300781 22.582031 6.363281 20.367188 4.148438 C 19.234375 3.019531 17.921875 2.144531 16.457031 1.550781 Z M 16.457031 1.550781 " clip-rule="nonzero"/></clipPath><clipPath id="d552742302"><rect x="0" width="24" y="0" height="30"/></clipPath><clipPath id="d596a9567d"><path d="M 4.261719 1.777344 L 25.738281 1.777344 L 25.738281 23.203125 L 4.261719 23.203125 Z M 4.261719 1.777344 " clip-rule="nonzero"/></clipPath><clipPath id="b0829ae2d1"><path d="M 14.996094 1.789062 C 9.089844 1.789062 4.300781 6.578125 4.300781 12.484375 C 4.300781 18.390625 9.089844 23.179688 14.996094 23.179688 C 20.902344 23.179688 25.691406 18.390625 25.691406 12.484375 C 25.691406 6.578125 20.902344 1.789062 14.996094 1.789062 Z M 14.996094 1.789062 " clip-rule="nonzero"/></clipPath><clipPath id="d462910db5"><path d="M 0.261719 0.777344 L 21.738281 0.777344 L 21.738281 22.203125 L 0.261719 22.203125 Z M 0.261719 0.777344 " clip-rule="nonzero"/></clipPath><clipPath id="e2ea2e275f"><path d="M 10.996094 0.789062 C 5.089844 0.789062 0.300781 5.578125 0.300781 11.484375 C 0.300781 17.390625 5.089844 22.179688 10.996094 22.179688 C 16.902344 22.179688 21.691406 17.390625 21.691406 11.484375 C 21.691406 5.578125 16.902344 0.789062 10.996094 0.789062 Z M 10.996094 0.789062 " clip-rule="nonzero"/></clipPath><clipPath id="403589a104"><rect x="0" width="22" y="0" height="23"/></clipPath><clipPath id="a88f92b91d"><path d="M 10 13 L 14 13 L 14 18.117188 L 10 18.117188 Z M 10 13 " clip-rule="nonzero"/></clipPath><clipPath id="8800ce4828"><path d="M 20 15 L 23.703125 15 L 23.703125 18.117188 L 20 18.117188 Z M 20 15 " clip-rule="nonzero"/></clipPath><clipPath id="ced80c9723"><path d="M 7 4.644531 L 23 4.644531 L 23 12 L 7 12 Z M 7 4.644531 " clip-rule="nonzero"/></clipPath><clipPath id="979b2dd5bc"><path d="M 8 6 L 22 6 L 22 18.117188 L 8 18.117188 Z M 8 6 " clip-rule="nonzero"/></clipPath><clipPath id="1977794f8d"><path d="M 6.488281 15 L 9 15 L 9 18.117188 L 6.488281 18.117188 Z M 6.488281 15 " clip-rule="nonzero"/></clipPath></defs><g clip-path="url(#2ec45fe559)"><g clip-path="url(#acaf4cbef0)"><g transform="matrix(1, 0, 0, 1, 3, 0.000000000000005773)"><g clip-path="url(#d552742302)"><g clip-path="url(#b8ec87a222)"><g clip-path="url(#1e25f03679)"><path fill="#1800ad" d="M 0.167969 0.683594 L 23.832031 0.683594 L 23.832031 29.25 L 0.167969 29.25 Z M 0.167969 0.683594 " fill-opacity="1" fill-rule="nonzero"/></g></g></g></g></g></g><g clip-path="url(#d596a9567d)"><g clip-path="url(#b0829ae2d1)"><g transform="matrix(1, 0, 0, 1, 4, 1)"><g clip-path="url(#403589a104)"><g clip-path="url(#d462910db5)"><g clip-path="url(#e2ea2e275f)"><rect x="-10.6" width="43.2" fill="#ffffff" height="54.6048" y="-9.3424" fill-opacity="1"/></g></g></g></g></g></g><g clip-path="url(#a88f92b91d)"><path fill="#faab11" d="M 10.734375 13.453125 L 13.160156 13.453125 L 13.160156 18.304688 L 10.734375 18.304688 Z M 10.734375 13.453125 " fill-opacity="1" fill-rule="nonzero"/></g><g clip-path="url(#8800ce4828)"><path fill="#faab11" d="M 22.820312 16.800781 C 22.71875 16.785156 22.644531 16.734375 22.59375 16.640625 C 22.566406 16.585938 22.554688 16.523438 22.5625 16.460938 C 22.558594 16.300781 22.496094 16.160156 22.378906 16.046875 C 22.261719 15.933594 22.121094 15.878906 21.957031 15.878906 C 21.800781 15.878906 21.667969 15.929688 21.554688 16.035156 C 21.417969 16.152344 21.347656 16.304688 21.351562 16.484375 C 21.351562 16.554688 21.363281 16.621094 21.386719 16.6875 C 21.425781 16.789062 21.414062 16.878906 21.355469 16.96875 C 21.292969 17.054688 21.210938 17.097656 21.105469 17.097656 C 21.089844 17.097656 21.042969 17.09375 21.03125 17.09375 C 20.863281 17.09375 20.722656 17.15625 20.605469 17.277344 C 20.488281 17.394531 20.429688 17.539062 20.433594 17.707031 C 20.433594 17.875 20.496094 18.015625 20.617188 18.132812 C 20.734375 18.25 20.878906 18.308594 21.046875 18.304688 L 22.714844 18.304688 C 22.914062 18.304688 23.085938 18.238281 23.230469 18.101562 C 23.378906 17.96875 23.457031 17.800781 23.472656 17.601562 C 23.484375 17.40625 23.429688 17.226562 23.304688 17.074219 C 23.179688 16.917969 23.019531 16.828125 22.820312 16.800781 Z M 22.820312 16.800781 " fill-opacity="1" fill-rule="nonzero"/></g><path fill="#faab11" d="M 21.046875 5.566406 L 19.832031 5.566406 L 19.832031 7.6875 L 21.046875 8.671875 Z M 21.046875 5.566406 " fill-opacity="1" fill-rule="nonzero"/><g clip-path="url(#ced80c9723)"><path fill="#faab11" d="M 7.671875 11.480469 C 7.796875 11.492188 7.910156 11.453125 8.003906 11.367188 L 14.980469 5.730469 L 21.949219 11.359375 C 22.046875 11.445312 22.15625 11.484375 22.285156 11.476562 C 22.410156 11.472656 22.515625 11.421875 22.601562 11.328125 C 22.6875 11.230469 22.722656 11.121094 22.714844 10.996094 C 22.707031 10.871094 22.65625 10.765625 22.5625 10.683594 L 15.289062 4.777344 C 15.203125 4.699219 15.097656 4.660156 14.976562 4.65625 C 14.863281 4.65625 14.765625 4.695312 14.679688 4.769531 L 7.394531 10.691406 C 7.304688 10.773438 7.253906 10.875 7.246094 10.996094 C 7.238281 11.121094 7.277344 11.234375 7.359375 11.328125 C 7.441406 11.421875 7.546875 11.472656 7.671875 11.480469 Z M 7.671875 11.480469 " fill-opacity="1" fill-rule="nonzero"/></g><path fill="#faab11" d="M 17.710938 13.453125 L 19.226562 13.453125 L 19.226562 15.878906 L 17.710938 15.878906 Z M 17.710938 13.453125 " fill-opacity="1" fill-rule="nonzero"/><path fill="#faab11" d="M 15.585938 13.453125 L 17.105469 13.453125 L 17.105469 15.878906 L 15.585938 15.878906 Z M 15.585938 13.453125 " fill-opacity="1" fill-rule="nonzero"/><g clip-path="url(#979b2dd5bc)"><path fill="#faab11" d="M 20.742188 16.523438 C 20.742188 16.511719 20.742188 16.5 20.742188 16.484375 C 20.746094 16.183594 20.847656 15.917969 21.046875 15.691406 L 21.046875 11.410156 L 14.980469 6.507812 L 8.914062 11.410156 L 8.914062 18.304688 L 10.128906 18.304688 L 10.128906 13.148438 C 10.128906 13.066406 10.15625 12.996094 10.21875 12.933594 C 10.277344 12.875 10.347656 12.847656 10.433594 12.847656 L 13.464844 12.847656 C 13.546875 12.847656 13.621094 12.875 13.679688 12.933594 C 13.738281 12.996094 13.769531 13.066406 13.769531 13.148438 L 13.769531 18.304688 L 20.003906 18.304688 C 19.890625 18.117188 19.835938 17.917969 19.832031 17.699219 C 19.835938 17.421875 19.917969 17.175781 20.089844 16.957031 C 20.257812 16.738281 20.476562 16.59375 20.742188 16.523438 Z M 19.832031 16.183594 C 19.832031 16.265625 19.804688 16.335938 19.746094 16.398438 C 19.6875 16.457031 19.613281 16.484375 19.53125 16.484375 L 15.285156 16.484375 C 15.199219 16.484375 15.128906 16.457031 15.070312 16.398438 C 15.011719 16.335938 14.980469 16.265625 14.980469 16.183594 L 14.980469 13.148438 C 14.980469 13.066406 15.011719 12.996094 15.070312 12.933594 C 15.128906 12.875 15.199219 12.847656 15.285156 12.847656 L 19.53125 12.847656 C 19.613281 12.847656 19.6875 12.875 19.746094 12.933594 C 19.804688 12.996094 19.832031 13.066406 19.832031 13.148438 Z M 19.832031 16.183594 " fill-opacity="1" fill-rule="nonzero"/></g><g clip-path="url(#1977794f8d)"><path fill="#faab11" d="M 7.398438 16.484375 C 7.398438 16.554688 7.410156 16.621094 7.4375 16.6875 C 7.472656 16.789062 7.464844 16.878906 7.402344 16.96875 C 7.34375 17.054688 7.257812 17.097656 7.152344 17.097656 C 7.136719 17.097656 7.09375 17.09375 7.078125 17.09375 C 6.910156 17.09375 6.769531 17.15625 6.652344 17.277344 C 6.535156 17.394531 6.476562 17.539062 6.480469 17.707031 C 6.484375 17.875 6.542969 18.015625 6.664062 18.132812 C 6.785156 18.25 6.929688 18.308594 7.09375 18.304688 L 8.308594 18.304688 L 8.308594 15.960938 C 8.214844 15.90625 8.113281 15.878906 8.003906 15.878906 C 7.835938 15.878906 7.695312 15.9375 7.578125 16.058594 C 7.457031 16.175781 7.398438 16.316406 7.398438 16.484375 Z M 7.398438 16.484375 " fill-opacity="1" fill-rule="nonzero"/></g></svg>