<svg xmlns="http://www.w3.org/2000/svg" xmlns:xlink="http://www.w3.org/1999/xlink" width="40" zoomAndPan="magnify" viewBox="0 0 30 30.000001" height="40" preserveAspectRatio="xMidYMid meet" version="1.0"><defs><clipPath id="1b04bf9b1c"><path d="M 3.613281 0.664062 L 26.664062 0.664062 L 26.664062 28.414062 L 3.613281 28.414062 Z M 3.613281 0.664062 " clip-rule="nonzero"/></clipPath><clipPath id="69cb8e47b3"><path d="M 19.457031 1.503906 C 18.082031 0.945312 16.628906 0.664062 15.136719 0.664062 C 13.644531 0.664062 12.191406 0.945312 10.816406 1.503906 C 9.394531 2.078125 8.113281 2.929688 7.023438 4.023438 C 4.886719 6.164062 3.691406 9.007812 3.664062 12.027344 C 3.632812 15.042969 4.765625 17.90625 6.855469 20.082031 L 6.851562 20.085938 L 15.136719 28.375 L 23.378906 20.132812 L 23.375 20.128906 C 25.484375 17.953125 26.632812 15.085938 26.613281 12.058594 C 26.59375 9.019531 25.398438 6.171875 23.253906 4.023438 C 22.15625 2.929688 20.878906 2.078125 19.457031 1.503906 Z M 19.457031 1.503906 " clip-rule="nonzero"/></clipPath><clipPath id="c6e196d600"><path d="M 0.613281 0.664062 L 23.664062 0.664062 L 23.664062 28.414062 L 0.613281 28.414062 Z M 0.613281 0.664062 " clip-rule="nonzero"/></clipPath><clipPath id="2872c6a350"><path d="M 16.457031 1.503906 C 15.082031 0.945312 13.628906 0.664062 12.136719 0.664062 C 10.644531 0.664062 9.191406 0.945312 7.816406 1.503906 C 6.394531 2.078125 5.113281 2.929688 4.023438 4.023438 C 1.886719 6.164062 0.691406 9.007812 0.664062 12.027344 C 0.632812 15.042969 1.765625 17.90625 3.855469 20.082031 L 3.851562 20.085938 L 12.136719 28.375 L 20.378906 20.132812 L 20.375 20.128906 C 22.484375 17.953125 23.632812 15.085938 23.613281 12.058594 C 23.59375 9.019531 22.398438 6.171875 20.253906 4.023438 C 19.15625 2.929688 17.878906 2.078125 16.457031 1.503906 Z M 16.457031 1.503906 " clip-rule="nonzero"/></clipPath><clipPath id="7efd8b7045"><rect x="0" width="24" y="0" height="29"/></clipPath><clipPath id="e3dcfa0a4e"><path d="M 4.722656 1.722656 L 25.550781 1.722656 L 25.550781 22.5 L 4.722656 22.5 Z M 4.722656 1.722656 " clip-rule="nonzero"/></clipPath><clipPath id="5b2ea81870"><path d="M 15.132812 1.734375 C 9.40625 1.734375 4.761719 6.378906 4.761719 12.109375 C 4.761719 17.835938 9.40625 22.480469 15.132812 22.480469 C 20.859375 22.480469 25.503906 17.835938 25.503906 12.109375 C 25.503906 6.378906 20.859375 1.734375 15.132812 1.734375 Z M 15.132812 1.734375 " clip-rule="nonzero"/></clipPath><clipPath id="73287e3e4c"><path d="M 0.722656 0.722656 L 21.550781 0.722656 L 21.550781 21.5 L 0.722656 21.5 Z M 0.722656 0.722656 " clip-rule="nonzero"/></clipPath><clipPath id="fb2c3f7964"><path d="M 11.132812 0.734375 C 5.40625 0.734375 0.761719 5.378906 0.761719 11.109375 C 0.761719 16.835938 5.40625 21.480469 11.132812 21.480469 C 16.859375 21.480469 21.503906 16.835938 21.503906 11.109375 C 21.503906 5.378906 16.859375 0.734375 11.132812 0.734375 Z M 11.132812 0.734375 " clip-rule="nonzero"/></clipPath><clipPath id="27c2690769"><rect x="0" width="22" y="0" height="22"/></clipPath><clipPath id="b0e370ca1f"><path d="M 9 5.019531 L 22 5.019531 L 22 7 L 9 7 Z M 9 5.019531 " clip-rule="nonzero"/></clipPath><clipPath id="961a587f49"><path d="M 7.761719 6 L 13 6 L 13 12 L 7.761719 12 Z M 7.761719 6 " clip-rule="nonzero"/></clipPath><clipPath id="68aa0805a0"><path d="M 18 6 L 22.277344 6 L 22.277344 12 L 18 12 Z M 18 6 " clip-rule="nonzero"/></clipPath><clipPath id="d784942c2d"><path d="M 7.761719 10 L 22.277344 10 L 22.277344 18.808594 L 7.761719 18.808594 Z M 7.761719 10 " clip-rule="nonzero"/></clipPath><clipPath id="06da257d39"><path d="M 10 12 L 15 12 L 15 18.808594 L 10 18.808594 Z M 10 12 " clip-rule="nonzero"/></clipPath><clipPath id="1931d67d03"><path d="M 15 17 L 20 17 L 20 18.808594 L 15 18.808594 Z M 15 17 " clip-rule="nonzero"/></clipPath></defs><g clip-path="url(#1b04bf9b1c)"><g clip-path="url(#69cb8e47b3)"><g transform="matrix(1, 0, 0, 1, 3, 0.000000000000005718)"><g clip-path="url(#7efd8b7045)"><g clip-path="url(#c6e196d600)"><g clip-path="url(#2872c6a350)"><path fill="#1800ad" d="M 0.664062 0.664062 L 23.613281 0.664062 L 23.613281 28.363281 L 0.664062 28.363281 Z M 0.664062 0.664062 " fill-opacity="1" fill-rule="nonzero"/></g></g></g></g></g></g><g clip-path="url(#e3dcfa0a4e)"><g clip-path="url(#5b2ea81870)"><g transform="matrix(1, 0, 0, 1, 4, 1)"><g clip-path="url(#27c2690769)"><g clip-path="url(#73287e3e4c)"><g clip-path="url(#fb2c3f7964)"><rect x="-10.6" width="43.2" fill="#ffffff" height="43.200001" y="-7.6" fill-opacity="1"/></g></g></g></g></g></g><g clip-path="url(#b0e370ca1f)"><path fill="#faab11" d="M 9.742188 6.265625 C 9.453125 6.265625 9.191406 6.066406 9.128906 5.789062 C 9.050781 5.484375 9.226562 5.160156 9.527344 5.058594 C 9.527344 5.058594 9.53125 5.054688 9.535156 5.054688 C 9.660156 5.019531 9.789062 5.023438 9.902344 5.023438 C 9.9375 5.023438 9.972656 5.023438 10.007812 5.023438 C 11.597656 5.023438 13.1875 5.023438 14.773438 5.023438 C 16.660156 5.023438 18.613281 5.023438 20.535156 5.027344 C 20.707031 5.019531 20.875 5.09375 20.996094 5.230469 C 21.117188 5.367188 21.175781 5.546875 21.148438 5.71875 C 21.132812 5.875 21.054688 6.015625 20.925781 6.117188 C 20.796875 6.222656 20.632812 6.277344 20.472656 6.261719 C 18.949219 6.261719 17.421875 6.261719 15.894531 6.261719 C 13.859375 6.261719 11.824219 6.261719 9.789062 6.261719 C 9.773438 6.265625 9.757812 6.265625 9.742188 6.265625 Z M 9.628906 5.378906 C 9.503906 5.425781 9.421875 5.574219 9.457031 5.703125 C 9.457031 5.707031 9.457031 5.707031 9.457031 5.710938 C 9.484375 5.839844 9.628906 5.9375 9.765625 5.925781 C 9.773438 5.925781 9.777344 5.925781 9.78125 5.925781 C 11.820312 5.925781 13.859375 5.925781 15.894531 5.925781 C 17.425781 5.925781 18.953125 5.925781 20.480469 5.925781 C 20.488281 5.925781 20.492188 5.925781 20.5 5.925781 C 20.574219 5.933594 20.652344 5.910156 20.714844 5.859375 C 20.773438 5.808594 20.808594 5.746094 20.8125 5.679688 C 20.8125 5.679688 20.8125 5.675781 20.8125 5.671875 C 20.824219 5.597656 20.800781 5.519531 20.742188 5.457031 C 20.6875 5.394531 20.617188 5.359375 20.542969 5.363281 C 20.542969 5.363281 20.539062 5.363281 20.539062 5.363281 C 18.617188 5.359375 16.660156 5.359375 14.773438 5.363281 C 13.183594 5.363281 11.597656 5.363281 10.011719 5.359375 C 9.976562 5.363281 9.9375 5.359375 9.898438 5.359375 C 9.800781 5.359375 9.710938 5.359375 9.628906 5.378906 Z M 9.628906 5.378906 " fill-opacity="1" fill-rule="nonzero"/></g><g clip-path="url(#961a587f49)"><path fill="#faab11" d="M 9.132812 11.660156 C 9.027344 11.660156 8.921875 11.652344 8.816406 11.636719 C 8.335938 11.550781 7.9375 11.179688 7.769531 10.667969 C 7.765625 10.652344 7.761719 10.632812 7.761719 10.617188 L 7.761719 10.289062 C 7.761719 10.261719 7.765625 10.238281 7.777344 10.214844 C 8.070312 9.59375 8.351562 8.953125 8.628906 8.332031 C 8.898438 7.71875 9.175781 7.085938 9.464844 6.472656 C 9.492188 6.414062 9.550781 6.375 9.617188 6.375 C 10.128906 6.375 10.640625 6.375 11.152344 6.375 L 11.921875 6.375 C 11.972656 6.375 12.019531 6.398438 12.054688 6.4375 C 12.085938 6.476562 12.097656 6.527344 12.085938 6.578125 C 11.941406 7.273438 11.78125 7.976562 11.628906 8.65625 C 11.496094 9.253906 11.355469 9.875 11.222656 10.488281 C 11.222656 10.492188 11.222656 10.496094 11.222656 10.5 C 11.214844 10.515625 11.210938 10.53125 11.207031 10.550781 C 11.191406 10.628906 11.164062 10.746094 11.050781 10.824219 C 10.945312 10.902344 10.839844 10.976562 10.738281 11.050781 C 10.667969 11.101562 10.597656 11.148438 10.527344 11.199219 C 10.117188 11.5 9.621094 11.660156 9.132812 11.660156 Z M 9.132812 11.660156 " fill-opacity="1" fill-rule="nonzero"/></g><path fill="#faab11" d="M 13.128906 11.667969 C 12.871094 11.667969 12.613281 11.621094 12.375 11.527344 C 12.113281 11.425781 11.925781 11.242188 11.746094 11.066406 C 11.628906 10.953125 11.519531 10.84375 11.398438 10.761719 C 11.339844 10.726562 11.308594 10.65625 11.324219 10.589844 C 11.480469 9.8125 11.660156 9.027344 11.828125 8.269531 C 11.960938 7.695312 12.09375 7.101562 12.21875 6.515625 C 12.234375 6.4375 12.300781 6.382812 12.378906 6.382812 C 12.96875 6.371094 13.5625 6.371094 14.140625 6.375 C 14.398438 6.375 14.652344 6.375 14.90625 6.375 C 14.949219 6.375 14.992188 6.394531 15.027344 6.425781 C 15.058594 6.457031 15.074219 6.5 15.074219 6.546875 C 15.074219 7.027344 15.074219 7.519531 15.078125 7.996094 C 15.082031 8.859375 15.082031 9.753906 15.066406 10.636719 C 15.066406 10.699219 15.03125 10.753906 14.972656 10.785156 C 14.828125 10.855469 14.703125 10.96875 14.570312 11.085938 C 14.417969 11.222656 14.257812 11.363281 14.058594 11.457031 C 13.769531 11.597656 13.449219 11.667969 13.128906 11.667969 Z M 13.128906 11.667969 " fill-opacity="1" fill-rule="nonzero"/><path fill="#faab11" d="M 17.144531 11.667969 C 16.855469 11.667969 16.5625 11.609375 16.289062 11.496094 C 16.054688 11.402344 15.875 11.242188 15.703125 11.089844 C 15.566406 10.96875 15.4375 10.859375 15.292969 10.78125 C 15.238281 10.753906 15.203125 10.695312 15.199219 10.632812 C 15.183594 9.691406 15.1875 8.734375 15.1875 7.808594 C 15.191406 7.386719 15.191406 6.964844 15.191406 6.546875 C 15.191406 6.5 15.207031 6.457031 15.238281 6.425781 C 15.269531 6.394531 15.3125 6.375 15.359375 6.375 C 15.625 6.375 15.886719 6.375 16.152344 6.375 C 16.71875 6.371094 17.308594 6.371094 17.882812 6.382812 C 17.964844 6.382812 18.03125 6.4375 18.046875 6.515625 C 18.175781 7.117188 18.3125 7.726562 18.445312 8.316406 C 18.609375 9.058594 18.78125 9.828125 18.9375 10.585938 C 18.953125 10.65625 18.921875 10.726562 18.867188 10.761719 C 18.742188 10.84375 18.636719 10.949219 18.523438 11.058594 C 18.363281 11.21875 18.199219 11.386719 17.96875 11.488281 C 17.71875 11.609375 17.433594 11.667969 17.144531 11.667969 Z M 17.144531 11.667969 " fill-opacity="1" fill-rule="nonzero"/><g clip-path="url(#68aa0805a0)"><path fill="#faab11" d="M 21.144531 11.664062 C 21 11.664062 20.84375 11.648438 20.675781 11.613281 C 20.085938 11.507812 19.601562 11.121094 19.171875 10.777344 L 19.152344 10.761719 C 19.121094 10.738281 19.101562 10.703125 19.09375 10.667969 C 18.894531 9.839844 18.707031 8.996094 18.527344 8.175781 C 18.414062 7.65625 18.292969 7.113281 18.171875 6.585938 C 18.160156 6.535156 18.171875 6.484375 18.207031 6.445312 C 18.238281 6.402344 18.285156 6.378906 18.335938 6.378906 C 18.886719 6.371094 19.449219 6.371094 19.992188 6.375 C 20.210938 6.375 20.429688 6.375 20.644531 6.375 C 20.710938 6.375 20.773438 6.414062 20.800781 6.472656 C 21.082031 7.074219 21.351562 7.691406 21.617188 8.289062 C 21.894531 8.925781 22.1875 9.582031 22.488281 10.222656 C 22.496094 10.242188 22.503906 10.269531 22.503906 10.292969 L 22.503906 10.621094 C 22.503906 10.640625 22.5 10.664062 22.492188 10.683594 C 22.382812 10.945312 22.222656 11.269531 21.902344 11.457031 C 21.695312 11.59375 21.441406 11.664062 21.144531 11.664062 Z M 21.144531 11.664062 " fill-opacity="1" fill-rule="nonzero"/></g><g clip-path="url(#d784942c2d)"><path fill="#faab11" d="M 8.226562 18.867188 C 8.085938 18.867188 7.945312 18.816406 7.820312 18.710938 C 7.785156 18.679688 7.761719 18.632812 7.761719 18.582031 L 7.761719 18.355469 C 7.761719 18.304688 7.785156 18.253906 7.828125 18.222656 C 8.050781 18.050781 8.308594 18.066406 8.535156 18.078125 C 8.578125 18.078125 8.621094 18.082031 8.660156 18.082031 C 8.664062 17.121094 8.660156 16.144531 8.660156 15.199219 C 8.660156 14.128906 8.660156 13.023438 8.664062 11.9375 C 8.664062 11.890625 8.683594 11.847656 8.71875 11.816406 C 8.753906 11.785156 8.796875 11.769531 8.84375 11.769531 C 9.429688 11.808594 9.992188 11.679688 10.425781 11.40625 C 10.425781 11.402344 10.429688 11.402344 10.429688 11.402344 C 10.53125 11.34375 10.625 11.273438 10.722656 11.195312 C 10.878906 11.078125 11.039062 10.957031 11.234375 10.875 C 11.292969 10.851562 11.359375 10.863281 11.40625 10.902344 C 11.5 10.980469 11.585938 11.066406 11.667969 11.144531 C 11.8125 11.292969 11.953125 11.429688 12.117188 11.523438 C 12.523438 11.769531 13.066406 11.839844 13.648438 11.722656 C 14.003906 11.652344 14.359375 11.449219 14.671875 11.144531 C 14.675781 11.140625 14.679688 11.136719 14.683594 11.132812 C 14.699219 11.121094 14.71875 11.101562 14.738281 11.085938 C 14.855469 10.980469 15.101562 10.757812 15.359375 10.953125 C 15.457031 11.027344 15.550781 11.105469 15.636719 11.183594 C 15.820312 11.34375 15.988281 11.492188 16.195312 11.578125 C 16.8125 11.851562 17.53125 11.847656 18.078125 11.5625 C 18.28125 11.460938 18.441406 11.300781 18.613281 11.132812 C 18.691406 11.058594 18.769531 10.980469 18.855469 10.90625 C 18.902344 10.863281 18.972656 10.851562 19.03125 10.875 C 19.214844 10.953125 19.363281 11.066406 19.507812 11.175781 C 19.554688 11.210938 19.597656 11.242188 19.644531 11.277344 C 20.128906 11.640625 20.757812 11.816406 21.421875 11.769531 C 21.46875 11.769531 21.511719 11.785156 21.546875 11.816406 C 21.582031 11.847656 21.601562 11.890625 21.601562 11.9375 C 21.605469 13.003906 21.605469 14.089844 21.605469 15.136719 C 21.601562 16.101562 21.601562 17.097656 21.605469 18.082031 C 21.648438 18.082031 21.691406 18.082031 21.734375 18.078125 C 21.964844 18.0625 22.226562 18.050781 22.445312 18.234375 C 22.484375 18.265625 22.503906 18.3125 22.503906 18.363281 L 22.503906 18.589844 C 22.503906 18.648438 22.472656 18.707031 22.417969 18.734375 C 22.40625 18.742188 22.390625 18.75 22.378906 18.757812 C 22.296875 18.808594 22.191406 18.875 22.050781 18.867188 L 21.789062 18.867188 C 21.230469 18.867188 20.652344 18.867188 20.085938 18.863281 C 19.992188 18.863281 19.917969 18.789062 19.917969 18.699219 C 19.914062 18.453125 19.914062 18.203125 19.914062 17.964844 C 19.917969 17.6875 19.917969 17.402344 19.910156 17.125 C 19.910156 17.121094 19.910156 17.113281 19.914062 17.109375 C 19.914062 17.097656 19.910156 17.09375 19.90625 17.085938 C 19.890625 17.074219 19.859375 17.0625 19.828125 17.066406 C 19.820312 17.066406 19.8125 17.066406 19.804688 17.066406 C 19.191406 17.066406 18.574219 17.066406 17.957031 17.066406 C 17.277344 17.066406 16.597656 17.066406 15.917969 17.0625 C 15.914062 17.0625 15.910156 17.0625 15.910156 17.0625 C 15.820312 17.058594 15.777344 17.074219 15.761719 17.082031 C 15.746094 17.382812 15.75 17.6875 15.75 17.984375 C 15.753906 18.21875 15.757812 18.460938 15.75 18.699219 C 15.746094 18.789062 15.675781 18.863281 15.585938 18.863281 C 15.320312 18.871094 15.042969 18.871094 14.683594 18.863281 C 14.589844 18.863281 14.515625 18.789062 14.515625 18.695312 C 14.511719 17.285156 14.511719 15.855469 14.515625 14.46875 C 14.515625 13.886719 14.515625 13.308594 14.515625 12.730469 L 14.515625 12.714844 C 14.511719 12.679688 14.511719 12.605469 14.5 12.578125 C 14.40625 12.558594 14.304688 12.5625 14.199219 12.5625 C 14.152344 12.5625 14.105469 12.5625 14.058594 12.5625 C 13.011719 12.566406 11.9375 12.566406 10.902344 12.5625 L 10.507812 12.5625 C 10.46875 12.5625 10.390625 12.566406 10.363281 12.578125 C 10.34375 12.691406 10.347656 12.8125 10.347656 12.941406 C 10.351562 13.003906 10.351562 13.066406 10.351562 13.128906 C 10.351562 13.667969 10.351562 14.210938 10.351562 14.75 C 10.351562 16.042969 10.351562 17.378906 10.347656 18.695312 C 10.347656 18.789062 10.273438 18.863281 10.179688 18.863281 C 9.820312 18.867188 9.453125 18.867188 9.097656 18.867188 C 8.824219 18.867188 8.546875 18.867188 8.273438 18.867188 C 8.257812 18.867188 8.242188 18.867188 8.226562 18.867188 Z M 8.097656 18.496094 C 8.140625 18.519531 8.191406 18.535156 8.246094 18.53125 C 8.253906 18.53125 8.257812 18.53125 8.261719 18.53125 C 8.542969 18.527344 8.820312 18.527344 9.097656 18.527344 C 9.398438 18.527344 9.703125 18.53125 10.011719 18.527344 C 10.011719 17.265625 10.011719 15.988281 10.011719 14.75 C 10.011719 14.210938 10.011719 13.667969 10.011719 13.125 C 10.011719 13.066406 10.011719 13.007812 10.011719 12.945312 C 10.007812 12.800781 10.003906 12.648438 10.035156 12.492188 C 10.039062 12.488281 10.039062 12.484375 10.039062 12.476562 C 10.117188 12.234375 10.375 12.226562 10.5 12.226562 L 10.902344 12.226562 C 11.9375 12.226562 13.007812 12.226562 14.0625 12.226562 C 14.109375 12.226562 14.152344 12.226562 14.195312 12.226562 C 14.320312 12.222656 14.453125 12.21875 14.585938 12.25 C 14.589844 12.25 14.597656 12.253906 14.601562 12.253906 C 14.84375 12.328125 14.847656 12.585938 14.851562 12.707031 L 14.851562 12.722656 C 14.851562 13.308594 14.851562 13.886719 14.851562 14.46875 C 14.851562 15.800781 14.847656 17.171875 14.851562 18.527344 C 15.0625 18.53125 15.246094 18.53125 15.414062 18.527344 C 15.417969 18.347656 15.414062 18.164062 15.414062 17.988281 C 15.410156 17.6875 15.40625 17.371094 15.425781 17.0625 C 15.429688 16.976562 15.480469 16.707031 15.917969 16.726562 C 16.597656 16.726562 17.277344 16.726562 17.957031 16.726562 C 18.570312 16.726562 19.183594 16.726562 19.796875 16.726562 C 19.921875 16.714844 20.050781 16.757812 20.136719 16.84375 C 20.214844 16.917969 20.253906 17.015625 20.25 17.125 C 20.253906 17.40625 20.253906 17.691406 20.253906 17.964844 C 20.25 18.148438 20.25 18.339844 20.25 18.527344 C 20.765625 18.53125 21.28125 18.53125 21.785156 18.527344 L 22.054688 18.527344 C 22.058594 18.527344 22.066406 18.527344 22.070312 18.527344 C 22.09375 18.53125 22.128906 18.515625 22.164062 18.492188 L 22.164062 18.453125 C 22.054688 18.398438 21.914062 18.40625 21.753906 18.414062 C 21.644531 18.421875 21.527344 18.425781 21.414062 18.410156 C 21.332031 18.402344 21.269531 18.328125 21.265625 18.246094 C 21.261719 17.207031 21.265625 16.15625 21.265625 15.136719 C 21.265625 14.144531 21.265625 13.125 21.261719 12.117188 C 20.585938 12.125 19.945312 11.925781 19.441406 11.546875 C 19.398438 11.515625 19.351562 11.480469 19.304688 11.445312 C 19.199219 11.367188 19.101562 11.289062 18.996094 11.234375 C 18.945312 11.277344 18.898438 11.324219 18.847656 11.375 C 18.667969 11.554688 18.476562 11.738281 18.230469 11.863281 C 17.597656 12.191406 16.765625 12.203125 16.058594 11.886719 C 15.808594 11.78125 15.609375 11.605469 15.414062 11.4375 C 15.328125 11.359375 15.242188 11.289062 15.15625 11.222656 C 15.128906 11.203125 15.082031 11.226562 14.964844 11.335938 C 14.941406 11.355469 14.921875 11.371094 14.902344 11.390625 C 14.542969 11.738281 14.132812 11.96875 13.710938 12.054688 C 13.046875 12.1875 12.421875 12.101562 11.945312 11.8125 C 11.746094 11.699219 11.582031 11.539062 11.425781 11.386719 C 11.375 11.332031 11.320312 11.28125 11.269531 11.234375 C 11.152344 11.296875 11.042969 11.378906 10.925781 11.464844 C 10.824219 11.542969 10.71875 11.625 10.601562 11.691406 C 10.148438 11.980469 9.597656 12.121094 9 12.113281 C 8.996094 13.144531 8.996094 14.1875 9 15.199219 C 9 16.195312 9 17.230469 8.996094 18.246094 C 8.996094 18.332031 8.929688 18.402344 8.847656 18.414062 C 8.734375 18.425781 8.625 18.421875 8.515625 18.414062 C 8.355469 18.40625 8.210938 18.398438 8.097656 18.449219 Z M 20.292969 16.617188 C 20.277344 16.617188 20.261719 16.617188 20.246094 16.613281 C 19.605469 16.613281 18.964844 16.613281 18.324219 16.613281 C 17.355469 16.617188 16.386719 16.617188 15.417969 16.613281 C 15.292969 16.628906 15.167969 16.585938 15.078125 16.5 C 15 16.425781 14.960938 16.324219 14.964844 16.21875 C 14.960938 15.59375 14.964844 14.957031 14.964844 14.339844 C 14.964844 13.8125 14.964844 13.265625 14.960938 12.730469 C 14.960938 12.636719 14.953125 12.347656 15.203125 12.253906 C 15.210938 12.253906 15.21875 12.25 15.222656 12.25 C 15.355469 12.21875 15.480469 12.222656 15.601562 12.226562 C 15.652344 12.226562 15.699219 12.226562 15.746094 12.226562 L 16.398438 12.226562 C 17.667969 12.226562 18.933594 12.226562 20.199219 12.226562 C 20.203125 12.226562 20.207031 12.226562 20.207031 12.226562 C 20.222656 12.226562 20.238281 12.226562 20.253906 12.226562 C 20.34375 12.230469 20.484375 12.230469 20.589844 12.339844 C 20.695312 12.445312 20.699219 12.582031 20.703125 12.675781 C 20.703125 12.6875 20.703125 12.703125 20.703125 12.71875 C 20.703125 12.722656 20.703125 12.726562 20.703125 12.730469 C 20.703125 13.265625 20.703125 13.8125 20.703125 14.339844 C 20.703125 14.957031 20.703125 15.59375 20.699219 16.21875 C 20.707031 16.328125 20.664062 16.429688 20.585938 16.503906 C 20.507812 16.578125 20.402344 16.617188 20.292969 16.617188 Z M 19.515625 16.277344 C 19.761719 16.277344 20.011719 16.277344 20.257812 16.277344 C 20.265625 16.277344 20.273438 16.277344 20.28125 16.277344 C 20.304688 16.28125 20.335938 16.273438 20.355469 16.257812 C 20.363281 16.25 20.363281 16.242188 20.363281 16.234375 C 20.363281 16.230469 20.363281 16.226562 20.363281 16.222656 C 20.367188 15.59375 20.367188 14.957031 20.363281 14.34375 C 20.363281 13.816406 20.363281 13.269531 20.367188 12.734375 C 20.367188 12.71875 20.363281 12.699219 20.363281 12.679688 C 20.363281 12.652344 20.363281 12.59375 20.355469 12.582031 C 20.351562 12.578125 20.351562 12.578125 20.347656 12.574219 C 20.339844 12.566406 20.277344 12.566406 20.246094 12.5625 C 20.226562 12.5625 20.210938 12.5625 20.195312 12.5625 C 18.929688 12.566406 17.664062 12.5625 16.398438 12.5625 L 15.75 12.5625 C 15.699219 12.566406 15.644531 12.5625 15.59375 12.5625 C 15.492188 12.558594 15.402344 12.558594 15.316406 12.574219 C 15.3125 12.582031 15.296875 12.613281 15.300781 12.722656 C 15.300781 13.265625 15.300781 13.8125 15.300781 14.34375 C 15.300781 14.957031 15.300781 15.59375 15.304688 16.222656 C 15.304688 16.226562 15.304688 16.230469 15.304688 16.238281 C 15.300781 16.246094 15.304688 16.25 15.3125 16.257812 C 15.324219 16.269531 15.355469 16.28125 15.386719 16.277344 C 15.394531 16.277344 15.402344 16.273438 15.410156 16.277344 C 16.382812 16.277344 17.351562 16.277344 18.324219 16.277344 C 18.722656 16.277344 19.117188 16.277344 19.515625 16.277344 Z M 19.515625 16.277344 " fill-opacity="1" fill-rule="nonzero"/></g><g clip-path="url(#06da257d39)"><path fill="#faab11" d="M 12.566406 18.867188 C 11.972656 18.867188 11.335938 18.867188 10.632812 18.863281 C 10.539062 18.863281 10.464844 18.789062 10.464844 18.695312 C 10.460938 16.90625 10.460938 14.992188 10.464844 12.847656 C 10.464844 12.753906 10.539062 12.679688 10.632812 12.679688 C 11.828125 12.675781 13.039062 12.675781 14.230469 12.679688 C 14.324219 12.679688 14.398438 12.753906 14.398438 12.847656 C 14.402344 15.128906 14.402344 16.984375 14.398438 18.695312 C 14.398438 18.789062 14.324219 18.863281 14.230469 18.863281 C 13.707031 18.867188 13.160156 18.867188 12.566406 18.867188 Z M 10.800781 18.527344 C 12.058594 18.527344 13.101562 18.527344 14.0625 18.527344 C 14.0625 16.90625 14.0625 15.144531 14.0625 13.015625 C 12.980469 13.011719 11.882812 13.011719 10.800781 13.015625 C 10.796875 15.027344 10.796875 16.835938 10.800781 18.527344 Z M 10.800781 18.527344 " fill-opacity="1" fill-rule="nonzero"/></g><path fill="#faab11" d="M 17.953125 16.164062 C 17.148438 16.164062 16.351562 16.164062 15.585938 16.164062 C 15.492188 16.164062 15.414062 16.089844 15.414062 15.996094 C 15.414062 14.917969 15.414062 13.847656 15.414062 12.847656 C 15.414062 12.753906 15.492188 12.675781 15.582031 12.675781 C 17.34375 12.675781 18.773438 12.675781 20.082031 12.675781 C 20.175781 12.675781 20.25 12.753906 20.25 12.847656 C 20.253906 13.890625 20.253906 14.949219 20.25 15.996094 C 20.25 16.085938 20.175781 16.164062 20.082031 16.164062 C 19.367188 16.164062 18.65625 16.164062 17.953125 16.164062 Z M 17.953125 16.164062 " fill-opacity="1" fill-rule="nonzero"/><g clip-path="url(#1931d67d03)"><path fill="#faab11" d="M 17.753906 18.867188 C 17.15625 18.867188 16.585938 18.867188 16.035156 18.863281 C 15.941406 18.863281 15.867188 18.789062 15.867188 18.695312 C 15.863281 18.25 15.863281 17.792969 15.867188 17.347656 C 15.867188 17.253906 15.941406 17.179688 16.035156 17.179688 C 17.351562 17.175781 18.53125 17.175781 19.632812 17.179688 C 19.726562 17.179688 19.800781 17.253906 19.800781 17.347656 C 19.804688 17.796875 19.804688 18.253906 19.800781 18.695312 C 19.800781 18.789062 19.726562 18.863281 19.632812 18.863281 C 18.972656 18.867188 18.347656 18.867188 17.753906 18.867188 Z M 16.203125 18.527344 C 17.207031 18.53125 18.277344 18.53125 19.464844 18.527344 C 19.464844 18.195312 19.46875 17.855469 19.464844 17.515625 C 18.457031 17.515625 17.386719 17.515625 16.203125 17.515625 C 16.199219 17.851562 16.199219 18.191406 16.203125 18.527344 Z M 16.203125 18.527344 " fill-opacity="1" fill-rule="nonzero"/></g></svg>