<svg xmlns="http://www.w3.org/2000/svg" xmlns:xlink="http://www.w3.org/1999/xlink" width="40" zoomAndPan="magnify" viewBox="0 0 30 37.92" height="40" preserveAspectRatio="xMidYMid meet" version="1.0"><defs><clipPath id="5ddb9c1cdd"><path d="M 3.113281 0.683594 L 26.886719 0.683594 L 26.886719 29.300781 L 3.113281 29.300781 Z M 3.113281 0.683594 " clip-rule="nonzero"/></clipPath><clipPath id="3d97751e43"><path d="M 19.457031 1.550781 C 18.035156 0.976562 16.539062 0.683594 15 0.683594 C 13.460938 0.683594 11.964844 0.976562 10.542969 1.550781 C 9.078125 2.144531 7.757812 3.019531 6.632812 4.148438 C 4.429688 6.355469 3.199219 9.285156 3.167969 12.402344 C 3.136719 15.511719 4.304688 18.464844 6.460938 20.707031 L 6.453125 20.710938 L 15 29.257812 L 23.5 20.757812 L 23.492188 20.753906 C 25.667969 18.511719 26.855469 15.558594 26.832031 12.433594 C 26.8125 9.300781 25.582031 6.363281 23.367188 4.148438 C 22.234375 3.019531 20.921875 2.144531 19.457031 1.550781 Z M 19.457031 1.550781 " clip-rule="nonzero"/></clipPath><clipPath id="e07a9941ea"><path d="M 0.144531 0.683594 L 23.855469 0.683594 L 23.855469 29.300781 L 0.144531 29.300781 Z M 0.144531 0.683594 " clip-rule="nonzero"/></clipPath><clipPath id="b0cc5d3802"><path d="M 16.457031 1.550781 C 15.035156 0.976562 13.539062 0.683594 12 0.683594 C 10.460938 0.683594 8.964844 0.976562 7.542969 1.550781 C 6.078125 2.144531 4.757812 3.019531 3.632812 4.148438 C 1.429688 6.355469 0.199219 9.285156 0.167969 12.402344 C 0.136719 15.511719 1.304688 18.464844 3.460938 20.707031 L 3.453125 20.710938 L 12 29.257812 L 20.5 20.757812 L 20.492188 20.753906 C 22.667969 18.511719 23.855469 15.558594 23.832031 12.433594 C 23.8125 9.300781 22.582031 6.363281 20.367188 4.148438 C 19.234375 3.019531 17.921875 2.144531 16.457031 1.550781 Z M 16.457031 1.550781 " clip-rule="nonzero"/></clipPath><clipPath id="1e0acb4405"><rect x="0" width="24" y="0" height="30"/></clipPath><clipPath id="767541197f"><path d="M 4.261719 1.777344 L 25.738281 1.777344 L 25.738281 23.203125 L 4.261719 23.203125 Z M 4.261719 1.777344 " clip-rule="nonzero"/></clipPath><clipPath id="5927b94fa9"><path d="M 14.996094 1.789062 C 9.089844 1.789062 4.300781 6.578125 4.300781 12.484375 C 4.300781 18.390625 9.089844 23.179688 14.996094 23.179688 C 20.902344 23.179688 25.691406 18.390625 25.691406 12.484375 C 25.691406 6.578125 20.902344 1.789062 14.996094 1.789062 Z M 14.996094 1.789062 " clip-rule="nonzero"/></clipPath><clipPath id="61a6ebe69f"><path d="M 0.261719 0.777344 L 21.738281 0.777344 L 21.738281 22.203125 L 0.261719 22.203125 Z M 0.261719 0.777344 " clip-rule="nonzero"/></clipPath><clipPath id="7fd7e00f29"><path d="M 10.996094 0.789062 C 5.089844 0.789062 0.300781 5.578125 0.300781 11.484375 C 0.300781 17.390625 5.089844 22.179688 10.996094 22.179688 C 16.902344 22.179688 21.691406 17.390625 21.691406 11.484375 C 21.691406 5.578125 16.902344 0.789062 10.996094 0.789062 Z M 10.996094 0.789062 " clip-rule="nonzero"/></clipPath><clipPath id="a24a0602e5"><rect x="0" width="22" y="0" height="23"/></clipPath><clipPath id="f706d9adc6"><path d="M 5.746094 2.992188 L 24.457031 2.992188 L 24.457031 20.957031 L 5.746094 20.957031 Z M 5.746094 2.992188 " clip-rule="nonzero"/></clipPath><clipPath id="074589651b"><path d="M 0.746094 0.992188 L 19.246094 0.992188 L 19.246094 18.957031 L 0.746094 18.957031 Z M 0.746094 0.992188 " clip-rule="nonzero"/></clipPath><clipPath id="e94ccc4bd6"><rect x="0" width="20" y="0" height="19"/></clipPath></defs><g clip-path="url(#5ddb9c1cdd)"><g clip-path="url(#3d97751e43)"><g transform="matrix(1, 0, 0, 1, 3, 0.000000000000005773)"><g clip-path="url(#1e0acb4405)"><g clip-path="url(#e07a9941ea)"><g clip-path="url(#b0cc5d3802)"><path fill="#1800ad" d="M 0.167969 0.683594 L 23.832031 0.683594 L 23.832031 29.25 L 0.167969 29.25 Z M 0.167969 0.683594 " fill-opacity="1" fill-rule="nonzero"/></g></g></g></g></g></g><g clip-path="url(#767541197f)"><g clip-path="url(#5927b94fa9)"><g transform="matrix(1, 0, 0, 1, 4, 1)"><g clip-path="url(#a24a0602e5)"><g clip-path="url(#61a6ebe69f)"><g clip-path="url(#7fd7e00f29)"><rect x="-10.6" width="43.2" fill="#ffffff" height="54.6048" y="-9.3424" fill-opacity="1"/></g></g></g></g></g></g><g clip-path="url(#f706d9adc6)"><g transform="matrix(1, 0, 0, 1, 5, 2)"><g clip-path="url(#e94ccc4bd6)"><g clip-path="url(#074589651b)"><path fill="#faab11" d="M 15.59375 15.152344 C 15.789062 15.140625 15.972656 15.199219 16.105469 15.339844 C 16.371094 15.617188 16.320312 16.09375 15.992188 16.410156 C 15.664062 16.722656 15.183594 16.753906 14.917969 16.476562 C 14.65625 16.199219 14.707031 15.722656 15.03125 15.40625 C 15.195312 15.25 15.398438 15.164062 15.59375 15.152344 Z M 9.820312 6.480469 C 9.671875 6.488281 9.527344 6.503906 9.382812 6.527344 L 9.117188 6.585938 L 11.332031 8.898438 L 10.824219 11.015625 L 8.6875 11.429688 L 6.476562 9.121094 L 6.40625 9.378906 C 6.15625 10.535156 6.46875 11.789062 7.347656 12.707031 C 8.226562 13.625 9.46875 13.992188 10.632812 13.789062 L 10.894531 13.734375 L 14.582031 17.582031 C 14.984375 18.003906 15.652344 18.015625 16.074219 17.613281 L 17.191406 16.542969 C 17.613281 16.140625 17.628906 15.472656 17.226562 15.050781 L 13.539062 11.199219 L 13.605469 10.941406 C 13.855469 9.785156 13.546875 8.53125 12.667969 7.609375 C 11.898438 6.808594 10.851562 6.429688 9.820312 6.480469 Z M 8.808594 0.992188 C 8.480469 0.992188 8.214844 1.257812 8.210938 1.589844 L 8.210938 3.085938 L 8.21875 3.175781 L 8.183594 3.183594 C 7.601562 3.332031 7.046875 3.550781 6.53125 3.832031 L 6.40625 3.90625 L 5.328125 2.78125 C 5.085938 2.53125 4.683594 2.519531 4.433594 2.761719 L 2.753906 4.371094 C 2.625 4.492188 2.5625 4.652344 2.558594 4.816406 C 2.554688 4.976562 2.613281 5.140625 2.734375 5.265625 L 3.8125 6.394531 L 3.589844 6.761719 C 3.308594 7.277344 3.085938 7.832031 2.9375 8.414062 L 2.929688 8.445312 L 2.875 8.4375 L 1.355469 8.4375 C 1.023438 8.4375 0.75 8.707031 0.75 9.039062 L 0.746094 10.015625 L 0.746094 11.199219 C 0.746094 11.535156 1.015625 11.808594 1.351562 11.808594 L 2.867188 11.808594 L 2.921875 11.804688 L 2.929688 11.835938 C 3.078125 12.417969 3.296875 12.972656 3.578125 13.492188 L 3.800781 13.859375 L 2.714844 14.980469 C 2.59375 15.105469 2.535156 15.269531 2.535156 15.433594 C 2.539062 15.59375 2.605469 15.753906 2.730469 15.875 L 4.402344 17.492188 C 4.65625 17.734375 5.054688 17.726562 5.296875 17.476562 L 6.382812 16.355469 L 6.503906 16.433594 C 7.023438 16.714844 7.574219 16.933594 8.15625 17.085938 L 8.191406 17.09375 L 8.183594 17.1875 L 8.179688 18.679688 C 8.179688 19.011719 8.445312 19.277344 8.773438 19.277344 L 11.175781 19.285156 C 11.503906 19.285156 11.769531 19.015625 11.773438 18.6875 L 11.773438 17.191406 L 11.765625 17.101562 L 11.800781 17.09375 C 12.09375 17.019531 12.375 16.925781 12.652344 16.816406 L 12.65625 16.816406 L 11.351562 15.453125 L 10.917969 15.546875 C 9.179688 15.84375 7.332031 15.304688 6.023438 13.933594 C 3.925781 11.746094 4 8.269531 6.1875 6.171875 C 8.375 4.074219 11.851562 4.148438 13.949219 6.339844 C 15.257812 7.707031 15.722656 9.578125 15.347656 11.300781 L 15.234375 11.730469 L 16.585938 13.140625 L 16.59375 13.121094 C 16.78125 12.71875 16.933594 12.300781 17.046875 11.863281 L 17.054688 11.832031 L 17.121094 11.835938 L 18.636719 11.839844 C 18.96875 11.839844 19.242188 11.570312 19.242188 11.238281 L 19.242188 10.050781 L 19.246094 9.074219 C 19.246094 8.742188 18.976562 8.46875 18.640625 8.46875 L 17.125 8.464844 L 17.0625 8.472656 L 17.054688 8.441406 C 16.90625 7.859375 16.6875 7.304688 16.410156 6.785156 L 16.214844 6.46875 L 16.296875 6.402344 L 17.335938 5.324219 C 17.5625 5.089844 17.558594 4.710938 17.320312 4.480469 L 15.59375 2.816406 C 15.355469 2.585938 14.980469 2.59375 14.75 2.832031 L 13.710938 3.90625 L 13.667969 3.960938 L 13.480469 3.84375 C 12.964844 3.5625 12.410156 3.34375 11.828125 3.191406 L 11.792969 3.183594 L 11.800781 3.089844 L 11.804688 1.59375 C 11.804688 1.265625 11.539062 1 11.210938 1 Z M 8.808594 0.992188 " fill-opacity="1" fill-rule="evenodd"/></g></g></g></g></svg>